<svg id="Illustracion_sinContactos" xmlns="http://www.w3.org/2000/svg" width="200.911" height="97.42" viewBox="0 0 200.911 97.42">
  <g id="Grupo_77" data-name="Grupo 77" opacity="0.72">
    <path id="Trazado_185" data-name="Trazado 185" d="M397.873,370.63a26.781,26.781,0,0,1-.184,3.286,24.341,24.341,0,0,1-1.223,5.289,21.8,21.8,0,0,1-1.578,3.469q-.27.479-.568.943h-191.2s-17.413-39.878,6.31-59.184q.445-.361.893-.71.414-.319.83-.626c.269-.2.541-.4.813-.588,7.15-5.051,14.98-7.549,23.194-9.1q.434-.082.87-.16.413-.076.828-.146c6.659-1.148,13.553-1.753,20.528-2.65,2.427-.313,4.866-.661,7.307-1.08,9.769-1.677,19.591-4.491,29.047-10.708a54.737,54.737,0,0,1,8.994-4.8c.206-.086.412-.171.619-.254s.4-.161.606-.239a47.438,47.438,0,0,1,17.31-3.275q.325,0,.649.005t.617.015a44.136,44.136,0,0,1,5.124.458q1.045.155,2.062.358,1.5.3,2.929.692c12.277,3.37,20.969,11.831,21.467,20.582a68.871,68.871,0,0,0,2.585,16.483,29.924,29.924,0,0,0,2.749,6.3q.461.779.975,1.507c3.382,4.789,8.519,7.944,16.35,8.469a20.507,20.507,0,0,1,13.518,6.412l.1.1A28.353,28.353,0,0,1,397.873,370.63Z" transform="translate(-196.962 -290.099)" fill="#d2e4ff"/>
    <path id="Trazado_186" data-name="Trazado 186" d="M1901.218,380.109c-.008,1.1-.068,2.2-.184,3.286a29.835,29.835,0,0,1-.865,4.643q-.164.613-.357,1.215a25.576,25.576,0,0,1-1.578,3.843h-65.166V300.415q1.5.3,2.929.692,1.75.481,3.4,1.094c6.8,2.525,12.2,6.656,15.276,11.412a16.661,16.661,0,0,1,2.793,8.076,68.855,68.855,0,0,0,2.584,16.483,29.961,29.961,0,0,0,2.749,6.3q.461.779.976,1.507c3.381,4.789,8.519,7.944,16.35,8.469a20.505,20.505,0,0,1,13.518,6.413l.1.1A28.359,28.359,0,0,1,1901.218,380.109Z" transform="translate(-1700.307 -299.578)" fill="#ebf3fa"/>
    <g id="Grupo_79" data-name="Grupo 79" transform="translate(13.364 23.008)">
      <g id="Grupo_78" data-name="Grupo 78" transform="translate(0 0)">
        <path id="Trazado_187" data-name="Trazado 187" d="M387.36,573.792v19.944H362.484v-10.1q-.416.308-.829.627v10.3h26.534V573.646Q387.774,573.717,387.36,573.792Z" transform="translate(-361.655 -573.646)" fill="#bdd8ff"/>
      </g>
      <path id="Trazado_188" data-name="Trazado 188" d="M405.086,577.421V596.33H381.893v-9.813C389.043,581.467,396.874,578.969,405.086,577.421Z" transform="translate(-380.251 -577.115)" fill="#bdd8ff"/>
    </g>
    <g id="Grupo_81" data-name="Grupo 81" transform="translate(105.774 0)">
      <g id="Grupo_80" data-name="Grupo 80" transform="translate(0 0.006)">
        <path id="Trazado_189" data-name="Trazado 189" d="M1519.669,290.168v9.284H1501.1v-5.775c-.207.082-.413.168-.619.254v6.139h19.8v-9.886Q1519.978,290.174,1519.669,290.168Z" transform="translate(-1500.485 -290.168)" fill="#bdd8ff"/>
      </g>
      <path id="Trazado_190" data-name="Trazado 190" d="M1532.893,290.1v8.636h-17.309v-5.361A47.438,47.438,0,0,1,1532.893,290.1Z" transform="translate(-1514.359 -290.099)" fill="#bdd8ff"/>
    </g>
    <path id="Trazado_191" data-name="Trazado 191" d="M2547.443,1174.264s3.793-20.195-1.094-20.588S2547.443,1174.264,2547.443,1174.264Z" transform="translate(-2353.944 -1083.596)" fill="#9fc1f4"/>
    <path id="Trazado_192" data-name="Trazado 192" d="M2438.424,1270.844s-7.148-13.049-11.223-12.568S2438.424,1270.844,2438.424,1270.844Z" transform="translate(-2245.595 -1179.703)" fill="#9fc1f4"/>
    <path id="Trazado_193" data-name="Trazado 193" d="M289.061,914.781c-1.017-4.078-7.352-2.8-7.352-2.8s-4.3,7.136-5.553,7.306,2.581-6.881,2.581-6.881c-2.425-.255-8.6,2.973-8.6,2.973s.391,8.325-.86,8.155,0-7.391,0-7.391c-2.346.765-4.536,3.738-4.536,3.738-2.737,4.843,3.129,8.411,3.129,8.411a14.511,14.511,0,0,1-1.564,6.2,12.712,12.712,0,0,0-1.4,7.811h-1.817a9.659,9.659,0,0,0-1.11-5.575,11.009,11.009,0,0,1-1.187-4.7s4.45-2.707,2.373-6.38a9.006,9.006,0,0,0-3.441-2.836s.949,5.478,0,5.607-.653-6.187-.653-6.187-4.687-2.449-6.527-2.256c0,0,2.907,5.349,1.958,5.22s-4.213-5.542-4.213-5.542-4.806-.967-5.577,2.127.475,4.64,1.187,4.834,5.281.129,5.162.773-3.2,1.676-4.925,1.1c0,0,1.9,5.091,4.391,4.834s3.263-1.934,4.806-2.062,2.67.323,1.9.773-3.382.148-4.628,1.3-2.255,1.859.059,2.375,6.467.193,7.3-1.74l.1-.242a1.058,1.058,0,0,1-.1.242,8.192,8.192,0,0,1,1.511,2.55c.063.168.163.4.312.717h0c.06.143.109.26.142.342a13.641,13.641,0,0,1,.477,4.737h-6.6v.383h.384a12.615,12.615,0,0,0,6.182,10.692h-4.447a1.43,1.43,0,0,0-1.367,1.485h22.177a1.429,1.429,0,0,0-1.367-1.485H272.97a12.614,12.614,0,0,0,6.182-10.692h.267V942.3H267.173a7.344,7.344,0,0,1,1.014-1.793l.2-.227c.2-.2.341-.353.436-.466a6.355,6.355,0,0,1,1.88-1.544.925.925,0,0,1-.018-.224c.005.072.011.145.018.224.14,1.792,3.341,3.356,5.309,3.678s1.36-.557.682-1.86-2.825-1.886-3.315-2.487.523-.6,1.709-.013,1.349,2.158,3.251,3.147,4.766-2.44,4.766-2.44c-1.516-.084-3.682-1.872-3.6-2.42s3.676.944,4.291,1.016,2.014-.76,2.231-3.45S282.183,930,282.183,930s-.936.756-1.994,1.518a7.036,7.036,0,0,0-.944-.982c.349-.335.663-.625.859-.8a7.092,7.092,0,0,0,1.292.254c3.285.34,5.788-6.372,5.788-6.372-2.268.765-6.335-.595-6.492-1.444s5.866-.765,6.8-1.02S290.078,918.859,289.061,914.781Zm-16.685,19.18c-.187-.1-.174-.456-.054-.918.259.064.526.119.8.166C272.845,933.743,272.581,934.076,272.376,933.961Zm-4.006,5.867a7.468,7.468,0,0,0-1.829,2.474h-.777a18.937,18.937,0,0,1,.605-6.706c.044-.108.108-.262.187-.45.2-.417.328-.724.412-.946.586-1.3,1.429-3.005,1.992-3.362a1.4,1.4,0,0,1-.137-.319l.137.319a2.687,2.687,0,0,0,.619.873c-1.069,2.163.988,4.769.988,4.769A8.753,8.753,0,0,1,268.37,939.828Zm8.639-10.7c-1.682-.5-3.71-.41-4.451-.843-1.017-.595.469-1.189,2.5-1.019,1.368.114,2.277,1.15,3.724,1.92A16.689,16.689,0,0,0,277.009,929.132Z" transform="translate(-240.609 -861.342)" fill="#c3dafc"/>
    <g id="Grupo_82" data-name="Grupo 82" transform="translate(143.061 23.964)">
      <path id="Trazado_194" data-name="Trazado 194" d="M2303.584,1235.991a.43.43,0,1,0,.729.427.663.663,0,1,0-.729-.427Z" transform="translate(-2275.629 -1182.467)" fill="#d2e4ff"/>
      <path id="Trazado_195" data-name="Trazado 195" d="M2217.688,1181.44a.43.43,0,1,0,.729.427.663.663,0,1,0-.729-.427Z" transform="translate(-2196.702 -1132.342)" fill="#d2e4ff"/>
      <path id="Trazado_196" data-name="Trazado 196" d="M2204.773,1279.893a.43.43,0,1,0,.729.427.663.663,0,1,0-.729-.427Z" transform="translate(-2184.836 -1222.807)" fill="#d2e4ff"/>
      <path id="Trazado_197" data-name="Trazado 197" d="M2446.021,1100.608a.493.493,0,1,0,.836.49.76.76,0,1,0-.836-.49Z" transform="translate(-2406.496 -1057.962)" fill="#d2e4ff"/>
      <path id="Trazado_198" data-name="Trazado 198" d="M2438.673,1184.7a.493.493,0,1,0,.836.49.76.76,0,1,0-.836-.49Z" transform="translate(-2399.746 -1135.229)" fill="#d2e4ff"/>
      <path id="Trazado_199" data-name="Trazado 199" d="M2329.192,1113.105a.493.493,0,1,0,.835.49.76.76,0,1,0-.835-.49Z" transform="translate(-2299.147 -1069.445)" fill="#d2e4ff"/>
      <path id="Trazado_200" data-name="Trazado 200" d="M2215.793,1060.89a.559.559,0,1,0,.948.555.861.861,0,1,0-.948-.555Z" transform="translate(-2194.939 -1021.355)" fill="#d2e4ff"/>
      <path id="Trazado_201" data-name="Trazado 201" d="M2042.6,1047.682a.559.559,0,1,0,.948.555.861.861,0,1,0-.948-.555Z" transform="translate(-2035.8 -1009.219)" fill="#d2e4ff"/>
      <path id="Trazado_202" data-name="Trazado 202" d="M2159.815,946.393a.558.558,0,1,0,.946.555,6.857,6.857,0,0,0,.3-1.593A6.935,6.935,0,0,0,2159.815,946.393Z" transform="translate(-2143.503 -916.149)" fill="#d2e4ff"/>
      <path id="Trazado_203" data-name="Trazado 203" d="M2064.009,926.558a.438.438,0,1,0,.743.435.676.676,0,1,0-.743-.435Z" transform="translate(-2055.492 -898.128)" fill="#d2e4ff"/>
      <path id="Trazado_204" data-name="Trazado 204" d="M2072.493,853.242a.438.438,0,1,0,.743.435.676.676,0,1,0-.743-.435Z" transform="translate(-2063.288 -830.761)" fill="#d2e4ff"/>
      <path id="Trazado_205" data-name="Trazado 205" d="M1990.407,958.194a.438.438,0,1,0,.743.435.676.676,0,1,0-.743-.435Z" transform="translate(-1987.863 -927.197)" fill="#d2e4ff"/>
      <path id="Trazado_206" data-name="Trazado 206" d="M2060.363,693.673a8.012,8.012,0,0,0,.345-1.848,8.023,8.023,0,0,0-1.444,1.2.648.648,0,1,0,1.1.644Z" transform="translate(-2051.096 -683.191)" fill="#d2e4ff"/>
      <path id="Trazado_207" data-name="Trazado 207" d="M1989.246,586.632a.648.648,0,1,0,1.1.644,8.006,8.006,0,0,0,.345-1.848A8.017,8.017,0,0,0,1989.246,586.632Z" transform="translate(-1986.759 -585.427)" fill="#d2e4ff"/>
      <path id="Trazado_208" data-name="Trazado 208" d="M1960.123,804.132a.648.648,0,1,0,1.1.644,1,1,0,1,0-1.1-.644Z" transform="translate(-1959.999 -785.279)" fill="#d2e4ff"/>
    </g>
    <g id="Grupo_90" data-name="Grupo 90" transform="translate(15.121 45.711)">
      <g id="Grupo_89" data-name="Grupo 89" transform="translate(0 0)">
        <g id="Grupo_84" data-name="Grupo 84" transform="translate(25.77 19.247)">
          <path id="Trazado_209" data-name="Trazado 209" d="M753.446,1098.783s-3.373-3.935-.208-6.434a8.974,8.974,0,0,1,4.2-1.286s-2.671,4.479-1.807,4.924,2.617-5.2,2.617-5.2,5.26-.51,6.953.3c0,0-4.5,3.68-3.55,3.9s5.8-3.393,5.8-3.393,4.9.833,4.635,3.82-1.948,3.909-2.689,3.829-5.079-1.735-5.173-1.127,2.516,2.593,4.344,2.686c0,0-3.452,3.807-5.746,2.708s-2.49-2.84-3.92-3.493-2.651-.651-2.06.015,3.178,1.313,4,2.76,1.552,2.422-.822,2.065-6.232-2.094-6.4-4.082Z" transform="translate(-747.746 -1090.624)" fill="#6a9ad3"/>
          <g id="Grupo_83" data-name="Grupo 83" transform="translate(0 4.845)">
            <path id="Trazado_210" data-name="Trazado 210" d="M753.862,1150.354s-13.3-.512-16.234,3.291a9.617,9.617,0,0,1-2.648,3.716l-.311.849s2.3-2.43,3.129-2.577C737.8,1155.634,736.507,1150.922,753.862,1150.354Z" transform="translate(-731.927 -1150.331)" fill="#5588bc"/>
            <path id="Trazado_211" data-name="Trazado 211" d="M703.941,1233.177a8.349,8.349,0,0,0-3.052,5.882l.518.047s.911-3.9,2.559-5.425S703.941,1233.177,703.941,1233.177Z" transform="translate(-700.889 -1226.147)" fill="#5588bc"/>
          </g>
        </g>
        <g id="Grupo_86" data-name="Grupo 86" transform="translate(0 8.564)">
          <path id="Trazado_212" data-name="Trazado 212" d="M402.982,972.867s5.365-3,2.861-7.082c0,0-2-2.5-4.149-3.148,0,0,1.144,6.08,0,6.223s-.787-6.867-.787-6.867-5.651-2.718-7.869-2.5c0,0,3.505,5.937,2.361,5.794s-5.079-6.152-5.079-6.152-5.794-1.073-6.724,2.36.572,5.151,1.431,5.365,6.366.143,6.223.858-3.863,1.86-5.937,1.216c0,0,2.289,5.651,5.294,5.365s3.934-2.146,5.794-2.289,3.219.358,2.289.859-4.077.164-5.579,1.441-2.718,2.064.071,2.636,7.8.215,8.8-1.931Z" transform="translate(-383.303 -958.974)" fill="#77a4e5"/>
          <g id="Grupo_85" data-name="Grupo 85" transform="translate(2.94 3.592)">
            <path id="Trazado_213" data-name="Trazado 213" d="M419.537,1003.244s15.022,4.864,16.739,10.3a11.411,11.411,0,0,0,1.431,5.222v1.073s-1.574-3.648-2.432-4.149C435.274,1015.691,438.636,1010.969,419.537,1003.244Z" transform="translate(-419.537 -1003.244)" fill="#6a9ad3"/>
            <path id="Trazado_214" data-name="Trazado 214" d="M635.324,1186.979a9.909,9.909,0,0,1,1,7.8l-.6-.161s.579-4.717-.634-7.089S635.324,1186.979,635.324,1186.979Z" transform="translate(-617.154 -1171.457)" fill="#6a9ad3"/>
          </g>
        </g>
        <g id="Grupo_88" data-name="Grupo 88" transform="translate(23.565)">
          <path id="Trazado_215" data-name="Trazado 215" d="M678.359,871.747s-7.072-3.96-3.772-9.335c0,0,2.64-3.3,5.469-4.149,0,0-1.509,8.015,0,8.2s1.037-9.052,1.037-9.052,7.449-3.583,10.372-3.3c0,0-4.62,7.826-3.112,7.638s6.695-8.109,6.695-8.109,7.638-1.414,8.864,3.112-.754,6.789-1.886,7.072-8.392.189-8.2,1.132,5.092,2.451,7.826,1.6c0,0-3.017,7.449-6.978,7.072s-5.186-2.829-7.638-3.017-4.243.471-3.017,1.132,5.375.216,7.355,1.9,3.583,2.72-.094,3.475-10.278.283-11.6-2.546Z" transform="translate(-673.71 -853.433)" fill="#9fc1f4"/>
          <g id="Grupo_87" data-name="Grupo 87" transform="translate(0.914 4.735)">
            <path id="Trazado_216" data-name="Trazado 216" d="M731.716,911.789s-19.8,6.412-22.065,13.578a15.043,15.043,0,0,1-1.886,6.883v1.415s2.074-4.809,3.206-5.469C710.972,928.2,706.54,921.973,731.716,911.789Z" transform="translate(-705.917 -911.789)" fill="#9fc1f4"/>
            <path id="Trazado_217" data-name="Trazado 217" d="M686.825,1153.986a13.061,13.061,0,0,0-1.313,10.283l.786-.211s-.763-6.217.835-9.344S686.825,1153.986,686.825,1153.986Z" transform="translate(-684.976 -1133.524)" fill="#9fc1f4"/>
          </g>
        </g>
        <path id="Trazado_218" data-name="Trazado 218" d="M571.2,1284.658a13.853,13.853,0,0,0,13.853-13.853H557.35A13.853,13.853,0,0,0,571.2,1284.658Z" transform="translate(-543.227 -1236.938)" fill="#77a4e5"/>
        <path id="Trazado_219" data-name="Trazado 219" d="M593.729,1284.551a13.861,13.861,0,0,1-15.574-13.747H581.6A13.855,13.855,0,0,0,593.729,1284.551Z" transform="translate(-562.345 -1236.937)" fill="#afcdfb"/>
        <rect id="Rectángulo_186" data-name="Rectángulo 186" width="28.477" height="0.425" transform="translate(13.667 33.867)" fill="#77a4e5"/>
      </g>
      <path id="Trazado_220" data-name="Trazado 220" d="M589.643,1423.939H562.906a1.648,1.648,0,0,1,1.648-1.648H588a1.648,1.648,0,0,1,1.648,1.648Z" transform="translate(-548.332 -1376.131)" fill="#77a4e5"/>
    </g>
    <path id="Trazado_221" data-name="Trazado 221" d="M1926.318,333.842a10.406,10.406,0,0,0-4.078,2.208c-3.844,3.983-11.2,3.47-11.2,3.47V322.43C1917.839,324.955,1923.243,329.086,1926.318,333.842Z" transform="translate(-1771.955 -319.806)" fill="#9fc1f4"/>
    <path id="Trazado_222" data-name="Trazado 222" d="M1839.4,388.039V302.2q-1.647-.612-3.4-1.094-1.432-.394-2.929-.692V393.1h65.166a25.576,25.576,0,0,0,1.578-3.843q.193-.6.357-1.215Z" transform="translate(-1700.307 -299.578)" fill="#bdd8ff"/>
  </g>
  <path id="Trazado_137" data-name="Trazado 137" d="M757.937,1031.122a7.461,7.461,0,0,0-.577-8.978,9.106,9.106,0,0,0-6.556-6.267c-1.341-5.032-8.859-7.178-15.384-4.126a14.768,14.768,0,0,0-13.7.075c-.989.562-2.465,1.478-2.76,1.539h0c-.32.087-9.3.615-11.439,10.2-1.064,4.765-.136,10.126,2.763,11.841-.586,3.139,1.1,8.788,4.971,10.172,2.523.9,5.265-.887,7.732-.6,8.205.96,27.5-6.475,28.482-7.6C753.664,1034.843,756.3,1034.245,757.937,1031.122Z" transform="translate(-634.849 -982.756)" fill="#3a3a3a"/>
  <path id="Trazado_138" data-name="Trazado 138" d="M748.107,1540.929c-.211,2.863-1.074,6.582,2.04,11.165a12.527,12.527,0,0,0,8.39,4.955l3.383-18.16-2.182-.9H748.858A22.267,22.267,0,0,0,748.107,1540.929Z" transform="translate(-671.659 -1459.68)" fill="#26cd7b"/>
  <path id="Trazado_139" data-name="Trazado 139" d="M1200.808,1599.481c0,1.235-.5,4.075,0,4.578s14.118.085,14.118.085-.214-1.818-6.226-4.126-4.15-8.266-4.15-8.266l-5.295,1.433A46.559,46.559,0,0,1,1200.808,1599.481Z" transform="translate(-1079.497 -1508.252)" fill="#fb9390"/>
  <path id="Trazado_140" data-name="Trazado 140" d="M1227.367,1684.24s-.2-1.666-5.486-3.833a20.653,20.653,0,0,1-8.739.745c-.113,1.257-.232,2.663.107,3C1213.751,1684.658,1227.367,1684.24,1227.367,1684.24Z" transform="translate(-1091.938 -1588.349)" fill="#359e6a"/>
  <path id="Trazado_141" data-name="Trazado 141" d="M1260.358,1595.162s1.664,3.006,1.664,4.241-.5,4.075,0,4.577c.421.422,12.329.136,16.161.033a.442.442,0,0,0,.245-.8,30.166,30.166,0,0,0-6.584-3.271c-4.525-1.737-7.043-5.755-8.011-7.636a1.015,1.015,0,0,0-1.441-.4l-2.054,1.284a1.015,1.015,0,0,0-.335,1.377Z" transform="translate(-1134.253 -1508.25)" fill="#fb9390"/>
  <path id="Trazado_142" data-name="Trazado 142" d="M1296.305,1683.862a.442.442,0,0,0,.245-.8,28.165,28.165,0,0,0-5.712-2.928h0c-3.139,1.667-8.16.968-10.778.431-.118,1.317-.28,2.9.083,3.267C1280.565,1684.251,1292.473,1683.966,1296.305,1683.862Z" transform="translate(-1152.375 -1588.099)" fill="#26cd7b"/>
  <path id="Trazado_143" data-name="Trazado 143" d="M1095.346,1288.879s1.986-6.227,4.67-6.227,5.774,1.616,6.955,6.733c.749,3.244,5.48,26.442,5.48,26.442l-8.193,1.795-7.7-21.744-.13,1.052Z" transform="translate(-985.619 -1228.994)" fill="#359e6a"/>
  <path id="Trazado_144" data-name="Trazado 144" d="M763.791,1183.836s-2.466-1.443-6.62,1.61c-4.581,3.367-15.62,32.51-15.62,32.51l14.3-.237s15.817-18.464,15.817-20.913-1.968-7.817-1.968-7.817Z" transform="translate(-665.98 -1139.409)" fill="#0d2b4b"/>
  <path id="Trazado_145" data-name="Trazado 145" d="M1171.194,1335.617s2.6,2.209,2.6,4.417-2.323,2.568-4.057,3.027-3.567.785-3.567.392,3.01-1.472,3.01-1.472-2.748,1.146-3.632.557,2.879-2.062,2.879-2.062-3.092,1.325-3.567.851S1168,1338.9,1168,1338.9s-1.963.164-1.963-.229v-.393S1169.673,1334.847,1171.194,1335.617Z" transform="translate(-1048.386 -1276.743)" fill="#fb9390"/>
  <path id="Trazado_177" data-name="Trazado 177" d="M824.919,1305.765c1.825-6.656,19.508-28.306,25.842-28.306s21.633,31.309,21.633,31.309l-7.911,4.71s-7.276-11.552-9.546-15.507c-.952-1.66-3.288-6.913-3.288-6.913l-7.837,17.069-1.5,2.577c-1.5,2.576-5.618,9.662-13.777,10.95S824.919,1305.765,824.919,1305.765Z" transform="translate(-740.159 -1224.301)" fill="#26cd7b"/>
  <path id="Trazado_178" data-name="Trazado 178" d="M955.747,1319.828s9.459,9.143,10.682,9.143,19.381,2.247,20.473,2.6l1,1.6.961,1.27s1.185-1.537.219-4.274-2.872-3.767-3.261-3.767-16.093-5.484-16.093-5.484l-8.808-8.819Z" transform="translate(-859.497 -1255.597)" fill="#fb9390"/>
  <path id="Trazado_179" data-name="Trazado 179" d="M971.917,1177.984l10.413-.966,1.5,4.853-6.012,2.447S972.74,1183.172,971.917,1177.984Z" transform="translate(-874.106 -1133.557)" fill="#fb9390"/>
  <path id="Trazado_180" data-name="Trazado 180" d="M1029.217,1177.018l-3.157.293a8.5,8.5,0,0,0-1.8,2.712,4.3,4.3,0,0,0,.222,4.233c.146.043.229.062.229.062l6.011-2.447Z" transform="translate(-920.994 -1133.557)" fill="#ef7f7f"/>
  <path id="Trazado_181" data-name="Trazado 181" d="M1050.6,1149.9c-.8-.891-1.662-1.459-4.453-1.778-2.916-.332-8.745,1.03-10.771,5.9-2.327,5.6,5.067,8.082,9.306,6.523S1055.273,1155.085,1050.6,1149.9Z" transform="translate(-931.04 -1107.404)" fill="#fb9390"/>
  <path id="Trazado_182" data-name="Trazado 182" d="M1076.236,1143.006c-.989.642-2.151.579-2.594-.142a1.966,1.966,0,0,1,.988-2.468c.989-.642,2.15-.579,2.594.142A1.966,1.966,0,0,1,1076.236,1143.006Z" transform="translate(-965.855 -1100.071)" fill="#fb9390"/>
  <path id="Trazado_183" data-name="Trazado 183" d="M903.832,1214.284c-2.559,1.734-2.768,4.255-1.158,9.086s7.475,11.594,7.475,11.594l7.622-7.212S910.973,1209.445,903.832,1214.284Z" transform="translate(-810.621 -1166.49)" fill="#10365e"/>
  <path id="Trazado_184" data-name="Trazado 184" d="M1045.589,1109.8a8.661,8.661,0,0,1-9.38-3.623c-3.6-5.334-8.328.633-8.328.633s1-5.753,7.73-5.466S1047.481,1107.159,1045.589,1109.8Z" transform="translate(-924.667 -1065.175)" fill="#3a3a3a"/>
</svg>
